# xmcd
#
# Track frame offsets: 
#        150
#        70725
#        127855
#        186600
#        241881
#        264569
#        302175
#        332175
#
# Disc length: 4681 seconds
#
# Revision: 5
# Processed by: cddbd v1.5.2PL0 Copyright (c) Steve Scherf et al.
# Submitted via: ExactAudioCopy v0.99pb5
#
DISCID=73124708
DTITLE=Mstislav Rostropovich (cello) and etc. - Mstislav Rostropovich¡EM
DTITLE=astercellist¡GLegendary Recordings 1956-1978 [CD1]
DYEAR=2002
DGENRE=Classical
TTITLE0=Dvorak Cello Concerto Op.104 - I. Allegro
TTITLE1=Dvorak Cello Concerto Op.104 - II. Adagio ma non troppo
TTITLE2=Dvorak Cello Concerto Op.104 - III. Finale (Allegro moderato)
TTITLE3=Schumann Cello Concerto Op.129 - I. Nicht zu schnell
TTITLE4=Schumann Cello Concerto Op.129 - II. Langsam
TTITLE5=Schumann Cello Concerto Op.129 - III. Sehr lebhaft
TTITLE6=Tchaikovsky¡EAndante Cantabile Op. posth. for Cello and String
TTITLE6=Orchestra
TTITLE7=Glazunov¡EChant du Menestrel Op.71 for Cello and Orchestra
EXTD=
EXTT0=Berliner Philharmoniker, Herbert Von Karajan
EXTT1=Berliner Philharmoniker, Herbert Von Karajan
EXTT2=Berliner Philharmoniker, Herbert Von Karajan
EXTT3=Leningrad Philharmonic Orchestra, Gennadi Rozhdestvensky
EXTT4=Leningrad Philharmonic Orchestra, Gennadi Rozhdestvensky
EXTT5=Leningrad Philharmonic Orchestra, Gennadi Rozhdestvensky
EXTT6=Berliner Philharmoniker
EXTT7=Boston Symphony Orchestra, Seiji Ozawa
PLAYORDER=
